<svg width="221" height="310" viewBox="0 0 221 310" fill="none" xmlns="http://www.w3.org/2000/svg">
<g filter="url(#filter0_i_1_16)">
<path fill-rule="evenodd" clip-rule="evenodd" d="M84 0H83.5256L83.0596 0.0892239L59.5596 4.58922L59.2498 4.64855L58.9499 4.74635L35.9499 12.2464L35.0368 12.5441L34.2991 13.1589L22.2991 23.1589L21.6609 23.6907L21.229 24.4003L14.229 35.9003L14.105 36.104L14.0009 36.3186L6.00093 52.8186L5.84863 53.1328L5.74146 53.465L0.741457 68.965L0.5 69.7135V70.5V89.5V102V116V116.495L0.597095 116.981L5.5971 141.981L5.75622 142.776L6.15878 143.481L14.1588 157.481L14.2725 157.68L14.4038 157.867L21.4038 167.867L21.4956 167.998L21.5957 168.123L33.5957 183.123L34.0056 183.636L34.534 184.025L42 189.527V202.762L33.2354 219.368L25.9313 229.594L22.9433 233.777L27.2078 236.648L129.708 305.648L135.854 309.785L137.391 302.538L140.662 287.117L150.5 274L151.998 272.003L151.302 269.606L147.626 256.945L148.089 256.482L165.402 260.378L165.944 260.5H166.5H190.5H205H208.333L209.615 257.423L214.615 245.423L215.409 243.518L214.628 241.607L210.128 230.607L209.822 229.859L209.296 229.246L203.492 222.475L208.822 217.737L210.5 216.245V214V204V200.58L207.312 199.34L206.267 198.934L208.179 197.36L212.263 193.996L208.674 190.109L204 185.045V172.156L211.516 169.765L212.449 169.468L213.201 168.841L219.201 163.841L221 162.342V160V155V153.012L219.635 151.567L196.536 127.109L200.972 118.236L201.771 116.638L201.377 114.896L195.5 88.941V70.5V69.6274L195.204 68.8064L186.204 43.8064L185.802 42.6896L184.941 41.8727L165.441 23.3727L165.103 23.0515L164.711 22.7985L149.211 12.7985L149.124 12.7426L149.035 12.6903L132.035 2.69033L131.074 2.12481L129.963 2.02149L108.463 0.0214939L108.232 0H108H84ZM61.7502 14.3514L84.4744 10H107.768L127.926 11.8752L143.876 21.2574L158.897 30.9485L177.198 48.3104L185.5 71.3726V89.5V90.059L185.623 90.6041L191.229 115.362L186.028 125.764L184.464 128.891L186.865 131.433L211 156.988V157.658L207.551 160.532L197.484 163.735L194 164.844V168.5V187V188.955L195.326 190.391L197.737 193.004L193.321 196.64L186.733 202.066L194.688 205.16L200.5 207.42V211.755L193.178 218.263L189.508 221.525L192.704 225.254L201.178 235.141L204.591 243.482L201.667 250.5H190.5H167.056L147.598 246.122L144.911 245.518L142.964 247.464L138.464 251.964L136.374 254.055L137.198 256.894L141.002 269.997L132 282L131.338 282.883L131.109 283.962L129.146 293.215L62.8529 248.588L72.5 230.5L80.5 217.5L86 203V186H88V159.644C112.785 156.68 132 135.584 132 110C132 82.3858 109.614 60 82 60C77.3015 60 72.7544 60.6481 68.4432 61.8597L39.5011 21.841L39.9632 21.4559L61.7502 14.3514ZM21.6888 43.3837L15.1514 56.8672L10.5 71.2865V89.5V102V115.505L15.2438 139.224L22.7276 152.32L29.5043 162.002L40.9943 176.364L49.966 182.975L52 184.473V187V204V205.238L51.4219 206.334L41.9219 224.334L41.7646 224.632L41.5687 224.906L37.0567 231.223L58.0997 245.389L68.5 227.5L76 217.5L80.5 203V186H78V159.842C52.256 157.805 32 136.268 32 110C32 97.2667 36.7598 85.6452 44.5971 76.8175L21.6888 43.3837Z" fill="url(#paint0_linear_1_16)"/>
</g>
<defs>
<filter id="filter0_i_1_16" x="0.5" y="0" width="221.5" height="310.785" filterUnits="userSpaceOnUse" color-interpolation-filters="sRGB">
<feFlood flood-opacity="0" result="BackgroundImageFix"/>
<feBlend mode="normal" in="SourceGraphic" in2="BackgroundImageFix" result="shape"/>
<feColorMatrix in="SourceAlpha" type="matrix" values="0 0 0 0 0 0 0 0 0 0 0 0 0 0 0 0 0 0 127 0" result="hardAlpha"/>
<feOffset dx="1" dy="1"/>
<feGaussianBlur stdDeviation="2"/>
<feComposite in2="hardAlpha" operator="arithmetic" k2="-1" k3="1"/>
<feColorMatrix type="matrix" values="0 0 0 0 0 0 0 0 0 0 0 0 0 0 0 0 0 0 0.25 0"/>
<feBlend mode="normal" in2="shape" result="effect1_innerShadow_1_16"/>
</filter>
<linearGradient id="paint0_linear_1_16" x1="110.75" y1="0" x2="110.75" y2="309.785" gradientUnits="userSpaceOnUse">
<stop stop-color="#F97D37"/>
<stop offset="0.65625" stop-color="#BB49BD"/>
<stop offset="1" stop-color="#812E83"/>
</linearGradient>
</defs>
</svg>
