<svg width="201" height="243" viewBox="0 0 201 243" fill="none" xmlns="http://www.w3.org/2000/svg">
<g filter="url(#filter0_i_1_47)">
<path fill-rule="evenodd" clip-rule="evenodd" d="M56.3337 177.512C42.2295 168.502 23.1072 170.035 10.71 182.108C-3.48925 195.937 -3.48925 218.358 10.71 232.187C24.9092 246.016 47.9307 246.016 62.13 232.187C69.2093 225.292 72.759 216.262 72.7793 207.226L72.8748 207.412V116.795L185.561 84.5756V162.826C171.31 152.266 150.884 153.324 137.87 165.999C123.671 179.827 123.671 202.248 137.87 216.077C152.069 229.906 175.091 229.906 189.29 216.077C196.926 208.64 200.456 198.718 199.879 188.984L200.035 189.288V16.1096L196.417 4.53084L192.281 0H185.561L62.0197 45.8118L56.3337 50.846V61.418V177.512ZM70.2903 96.5104V62.8218C70.2903 61.9793 70.8182 61.2272 71.6106 60.9409L181.848 21.1054C183.152 20.6343 184.528 21.6001 184.528 22.9863V64.4476C184.528 65.3371 183.94 66.1196 183.086 66.3681L72.8488 98.4308C71.5692 98.803 70.2903 97.8431 70.2903 96.5104ZM178.544 205.612C186.809 197.563 186.809 184.513 178.544 176.464C170.28 168.415 156.88 168.415 148.616 176.464C140.351 184.513 140.351 197.563 148.616 205.612C156.88 213.661 170.28 213.661 178.544 205.612ZM51.3841 221.721C59.6486 213.673 59.6486 200.623 51.3841 192.574C43.1196 184.525 29.7203 184.525 21.4558 192.574C13.1914 200.623 13.1914 213.673 21.4558 221.721C29.7203 229.77 43.1196 229.77 51.3841 221.721Z" fill="url(#paint0_linear_1_47)"/>
</g>
<defs>
<filter id="filter0_i_1_47" x="0.0605621" y="0" width="199.974" height="246.559" filterUnits="userSpaceOnUse" color-interpolation-filters="sRGB">
<feFlood flood-opacity="0" result="BackgroundImageFix"/>
<feBlend mode="normal" in="SourceGraphic" in2="BackgroundImageFix" result="shape"/>
<feColorMatrix in="SourceAlpha" type="matrix" values="0 0 0 0 0 0 0 0 0 0 0 0 0 0 0 0 0 0 127 0" result="hardAlpha"/>
<feOffset dy="4"/>
<feGaussianBlur stdDeviation="2"/>
<feComposite in2="hardAlpha" operator="arithmetic" k2="-1" k3="1"/>
<feColorMatrix type="matrix" values="0 0 0 0 0 0 0 0 0 0 0 0 0 0 0 0 0 0 0.05 0"/>
<feBlend mode="normal" in2="shape" result="effect1_innerShadow_1_47"/>
</filter>
<linearGradient id="paint0_linear_1_47" x1="126.634" y1="0" x2="126.634" y2="207.412" gradientUnits="userSpaceOnUse">
<stop offset="0.109375" stop-color="#F17B61"/>
<stop offset="0.625" stop-color="#C41C80"/>
<stop offset="1" stop-color="#97297D"/>
</linearGradient>
</defs>
</svg>
