<svg width="301" height="301" viewBox="0 0 301 301" fill="none" xmlns="http://www.w3.org/2000/svg">
<g filter="url(#filter0_d_1_3)">
<path fill-rule="evenodd" clip-rule="evenodd" d="M256.673 150.355C256.673 91.6379 209.073 44.0381 150.355 44.0381C91.6379 44.0381 44.0381 91.6379 44.0381 150.355C44.0381 209.073 91.6379 256.673 150.355 256.673C209.073 256.673 256.673 209.073 256.673 150.355ZM114.853 81.0733C111.519 79.1489 107.353 81.5545 107.353 85.4035L107.353 215.307C107.353 219.156 111.519 221.562 114.853 219.637L227.353 154.686C230.686 152.761 230.686 147.95 227.353 146.025L114.853 81.0733Z" fill="url(#paint0_linear_1_3)"/>
</g>
<defs>
<filter id="filter0_d_1_3" x="40.0381" y="44.0381" width="220.635" height="220.635" filterUnits="userSpaceOnUse" color-interpolation-filters="sRGB">
<feFlood flood-opacity="0" result="BackgroundImageFix"/>
<feColorMatrix in="SourceAlpha" type="matrix" values="0 0 0 0 0 0 0 0 0 0 0 0 0 0 0 0 0 0 127 0" result="hardAlpha"/>
<feOffset dy="4"/>
<feGaussianBlur stdDeviation="2"/>
<feComposite in2="hardAlpha" operator="out"/>
<feColorMatrix type="matrix" values="0 0 0 0 0 0 0 0 0 0 0 0 0 0 0 0 0 0 0.25 0"/>
<feBlend mode="normal" in2="BackgroundImageFix" result="effect1_dropShadow_1_3"/>
<feBlend mode="normal" in="SourceGraphic" in2="effect1_dropShadow_1_3" result="shape"/>
</filter>
<linearGradient id="paint0_linear_1_3" x1="75.1777" y1="75.1777" x2="225.533" y2="225.533" gradientUnits="userSpaceOnUse">
<stop stop-color="#FC774D"/>
<stop offset="1" stop-color="#BF2FA8"/>
</linearGradient>
</defs>
</svg>
