<svg width="300" height="400" viewBox="0 0 300 400" fill="none" xmlns="http://www.w3.org/2000/svg">
<path fill-rule="evenodd" clip-rule="evenodd" d="M30 20H270C275.523 20 280 24.4772 280 30V370C280 375.523 275.523 380 270 380H30C24.4772 380 20 375.523 20 370V30C20 24.4772 24.4771 20 30 20ZM0 30C0 13.4315 13.4315 0 30 0H270C286.569 0 300 13.4315 300 30V370C300 386.569 286.569 400 270 400H30C13.4315 400 0 386.569 0 370V30ZM240 254C240 303.706 199.706 344 150 344C100.294 344 60 303.706 60 254C60 204.294 100.294 164 150 164C199.706 164 240 204.294 240 254ZM260 254C260 314.751 210.751 364 150 364C89.2487 364 40 314.751 40 254C40 193.249 89.2487 144 150 144C210.751 144 260 193.249 260 254ZM160 74C160 79.5229 155.523 84 150 84C144.477 84 140 79.5229 140 74C140 68.4771 144.477 64 150 64C155.523 64 160 68.4771 160 74Z" fill="url(#paint0_linear_1_39)"/>
<defs>
<linearGradient id="paint0_linear_1_39" x1="150" y1="-50" x2="150" y2="450" gradientUnits="userSpaceOnUse">
<stop stop-color="#F49864"/>
<stop offset="1" stop-color="#A40EBC"/>
</linearGradient>
</defs>
</svg>
