<svg width="300" height="300" viewBox="0 0 300 300" fill="none" xmlns="http://www.w3.org/2000/svg">
<g filter="url(#filter0_i_2_3)">
<path fill-rule="evenodd" clip-rule="evenodd" d="M30 0C13.4315 0 0 13.4315 0 30V270C0 286.569 13.4315 300 30 300H270C286.569 300 300 286.569 300 270V30C300 13.4315 286.569 0 270 0H30ZM30 15.8824C21.7157 15.8824 15 22.5981 15 30.8824V265.588C15 273.872 21.7157 280.588 30 280.588H270C278.284 280.588 285 273.872 285 265.588V30.8824C285 22.5981 278.284 15.8824 270 15.8824H30ZM37 45.8824C36.4477 45.8824 36 46.3301 36 46.8824V97.8235C36 98.3758 36.4477 98.8235 37 98.8235H57.5C58.0523 98.8235 58.5 98.3758 58.5 97.8235V46.8824C58.5 46.3301 58.0523 45.8824 57.5 45.8824H37ZM36 122.765C36 122.212 36.4477 121.765 37 121.765H57.5C58.0523 121.765 58.5 122.212 58.5 122.765V173.706C58.5 174.258 58.0523 174.706 57.5 174.706H37C36.4477 174.706 36 174.258 36 173.706V122.765ZM37 195.882C36.4477 195.882 36 196.33 36 196.882V247.824C36 248.376 36.4477 248.824 37 248.824H57.5C58.0523 248.824 58.5 248.376 58.5 247.824V196.882C58.5 196.33 58.0523 195.882 57.5 195.882H37ZM243 49.2353C243 48.683 243.448 48.2353 244 48.2353H264.5C265.052 48.2353 265.5 48.683 265.5 49.2353V100.176C265.5 100.729 265.052 101.176 264.5 101.176H244C243.448 101.176 243 100.729 243 100.176V49.2353ZM244 124.118C243.448 124.118 243 124.565 243 125.118V176.059C243 176.611 243.448 177.059 244 177.059H264.5C265.052 177.059 265.5 176.611 265.5 176.059V125.118C265.5 124.565 265.052 124.118 264.5 124.118H244ZM243 199.235C243 198.683 243.448 198.235 244 198.235H264.5C265.052 198.235 265.5 198.683 265.5 199.235V250.176C265.5 250.729 265.052 251.176 264.5 251.176H244C243.448 251.176 243 250.729 243 250.176V199.235Z" fill="url(#paint0_linear_2_3)"/>
</g>
<defs>
<filter id="filter0_i_2_3" x="0" y="0" width="300" height="304" filterUnits="userSpaceOnUse" color-interpolation-filters="sRGB">
<feFlood flood-opacity="0" result="BackgroundImageFix"/>
<feBlend mode="normal" in="SourceGraphic" in2="BackgroundImageFix" result="shape"/>
<feColorMatrix in="SourceAlpha" type="matrix" values="0 0 0 0 0 0 0 0 0 0 0 0 0 0 0 0 0 0 127 0" result="hardAlpha"/>
<feOffset dy="4"/>
<feGaussianBlur stdDeviation="2"/>
<feComposite in2="hardAlpha" operator="arithmetic" k2="-1" k3="1"/>
<feColorMatrix type="matrix" values="0 0 0 0 0 0 0 0 0 0 0 0 0 0 0 0 0 0 0.05 0"/>
<feBlend mode="normal" in2="shape" result="effect1_innerShadow_2_3"/>
</filter>
<linearGradient id="paint0_linear_2_3" x1="150" y1="0" x2="150" y2="300" gradientUnits="userSpaceOnUse">
<stop stop-color="#EE8C76"/>
<stop offset="0.479167" stop-color="#C0449E"/>
<stop offset="1" stop-color="#982C9A"/>
</linearGradient>
</defs>
</svg>
