<svg width="299" height="299" viewBox="0 0 299 299" fill="none" xmlns="http://www.w3.org/2000/svg">
<g filter="url(#filter0_i_1_5)">
<path d="M223.793 223.793C264.992 182.594 264.992 115.797 223.793 74.5977C182.594 33.3985 115.797 33.3985 74.5977 74.5977C33.3985 115.797 33.3985 182.594 74.5977 223.793C115.797 264.992 182.594 264.992 223.793 223.793Z" fill="url(#paint0_linear_1_5)"/>
<path d="M148.5 237C196.825 237 236 197.825 236 149.5C236 101.175 196.825 62 148.5 62C100.175 62 61 101.175 61 149.5C61 197.825 100.175 237 148.5 237Z" fill="#333333"/>
<path d="M196.669 140.059C203.702 144.12 203.702 154.271 196.669 158.332L133.371 194.877C126.338 198.937 117.546 193.862 117.546 185.741V112.65C117.546 104.529 126.338 99.4533 133.371 103.514L196.669 140.059Z" fill="white"/>
</g>
<defs>
<filter id="filter0_i_1_5" x="43.6983" y="43.6983" width="210.994" height="214.994" filterUnits="userSpaceOnUse" color-interpolation-filters="sRGB">
<feFlood flood-opacity="0" result="BackgroundImageFix"/>
<feBlend mode="normal" in="SourceGraphic" in2="BackgroundImageFix" result="shape"/>
<feColorMatrix in="SourceAlpha" type="matrix" values="0 0 0 0 0 0 0 0 0 0 0 0 0 0 0 0 0 0 127 0" result="hardAlpha"/>
<feOffset dy="4"/>
<feGaussianBlur stdDeviation="2"/>
<feComposite in2="hardAlpha" operator="arithmetic" k2="-1" k3="1"/>
<feColorMatrix type="matrix" values="0 0 0 0 0 0 0 0 0 0 0 0 0 0 0 0 0 0 0.25 0"/>
<feBlend mode="normal" in2="shape" result="effect1_innerShadow_1_5"/>
</filter>
<linearGradient id="paint0_linear_1_5" x1="74.5977" y1="74.5977" x2="223.793" y2="223.793" gradientUnits="userSpaceOnUse">
<stop stop-color="#FFA26D"/>
<stop offset="1" stop-color="#C464C6"/>
</linearGradient>
</defs>
</svg>
